# xmcd CD database file
#
# Track frame offsets:
#	150
#	15502
#	41721
#	51924
#	72186
#	94443
#	112136
#	149379
#	170952
#	189503
#	208155
#	228246
#	244702
#	266932
#	288177
#	306275
#
# Disc length: 4489 seconds
#
# Revision: 0
# Processed by: cddbd v1.5.1PL2 Copyright (c) Steve Scherf et al.
# Submitted via: Feurio! 1.68 - http://www.feurio.com
#
DISCID=f9118710
DTITLE=B. B.  KING - and Friends
DYEAR=1900
DGENRE=
TTITLE0=BB King - Blues in 'G'
TTITLE1=BB King and Bobby Bland - I Like To Live the Love
TTITLE2=BB King and Joe Cocker - Dangerous Mood
TTITLE3=BB King and Leon Russel and Joe Walsh - Hummingbird
TTITLE4=BB King and Tracy Chapman - The Thrill is Gone
TTITLE5=BB King and Bonnie Raitt - Baby I Love You
TTITLE6=BB King and Gary Moore - Thrill Is Gone
TTITLE7=BB King and Mick Fleetwood and Stevie Nicks - Can't Get Enough
TTITLE8=BB King and David Gilmour - Cryin Won't Help You Babe
TTITLE9=BB King and U 2 - When Love Comes To Town
TTITLE10=BB King and Willie Nelson - Night Life
TTITLE11=BB King and Stevie Ray Vaughn - Matchbox Blues
TTITLE12=BB King and John Lee Hooker - You Shook Me
TTITLE13=BB King and T Bone Walker - Stormy Monday Blues
TTITLE14=BB King and Melissa Etheridge - Rescue Me
TTITLE15=Allman Brothers Band - BB King - Meddley
EXTD=
EXTT0=
EXTT1=
EXTT2=
EXTT3=
EXTT4=
EXTT5=
EXTT6=
EXTT7=
EXTT8=
EXTT9=
EXTT10=
EXTT11=
EXTT12=
EXTT13=
EXTT14=
EXTT15=
PLAYORDER=
